<svg width="241" height="241" viewBox="0 0 241 241" fill="none" xmlns="http://www.w3.org/2000/svg">
<g clip-path="url(#clip0_404_66)">
<path fill-rule="evenodd" clip-rule="evenodd" d="M17.6412 17.6412C0 35.3065 0 63.6963 0 120.5C0 177.304 0 205.706 17.6412 223.347C35.3065 241 63.6963 241 120.5 241C177.304 241 205.706 241 223.347 223.347C241 205.718 241 177.304 241 120.5C241 63.6963 241 35.2945 223.347 17.6412C205.718 0 177.304 0 120.5 0C63.6963 0 35.2945 0 17.6412 17.6412ZM138.43 53.5743C140.743 54.1956 142.715 55.7096 143.913 57.7837C145.11 59.8578 145.435 62.3225 144.817 64.6362L113.632 181.039C113.324 182.186 112.793 183.26 112.07 184.202C111.347 185.143 110.446 185.933 109.417 186.526C107.34 187.724 104.873 188.047 102.558 187.426C100.242 186.804 98.2685 185.288 97.0708 183.211C95.8731 181.135 95.5495 178.667 96.1711 176.352L127.356 59.9608C127.664 58.8129 128.195 57.7369 128.919 56.7944C129.643 55.8519 130.545 55.0615 131.575 54.4682C132.605 53.875 133.741 53.4907 134.92 53.3373C136.098 53.1839 137.295 53.2645 138.442 53.5743H138.43ZM156.289 77.9635C157.983 76.2711 160.28 75.3205 162.675 75.3205C165.07 75.3205 167.367 76.2711 169.062 77.9635L171.58 80.4699C179.232 88.1217 185.618 94.5081 190.004 100.256C194.632 106.329 197.885 112.74 197.885 120.5C197.885 128.26 194.632 134.671 190.004 140.744C185.618 146.492 179.232 152.878 171.568 160.53L169.062 163.036C168.234 163.924 167.236 164.637 166.128 165.131C165.019 165.625 163.822 165.89 162.609 165.912C161.396 165.933 160.19 165.71 159.065 165.255C157.94 164.801 156.917 164.124 156.059 163.266C155.201 162.408 154.524 161.385 154.07 160.26C153.615 159.135 153.392 157.929 153.413 156.716C153.435 155.503 153.7 154.306 154.194 153.197C154.688 152.089 155.401 151.091 156.289 150.264L158.349 148.191C166.567 139.973 172.074 134.454 175.629 129.779C179.039 125.32 179.81 122.717 179.81 120.5C179.81 118.283 179.039 115.68 175.629 111.221C172.074 106.558 166.567 101.027 158.349 92.8091L156.289 90.7365C154.596 89.042 153.645 86.7449 153.645 84.35C153.645 81.9551 154.596 79.658 156.289 77.9635ZM71.9385 77.9635C73.6517 76.3671 75.9177 75.498 78.259 75.5393C80.6003 75.5806 82.8342 76.5291 84.49 78.185C86.1459 79.8408 87.0944 82.0747 87.1357 84.416C87.177 86.7573 86.3079 89.0233 84.7115 90.7365L82.651 92.8091C74.4329 101.027 68.9381 106.546 65.3713 111.221C61.9611 115.68 61.202 118.283 61.202 120.5C61.202 122.717 61.9611 125.32 65.3713 129.779C68.9381 134.442 74.4329 139.973 82.651 148.191L84.7236 150.264C85.5863 151.098 86.2743 152.095 86.7475 153.198C87.2206 154.301 87.4693 155.487 87.4792 156.687C87.489 157.887 87.2598 159.077 86.8049 160.187C86.3499 161.298 85.6784 162.306 84.8294 163.155C83.9805 164.003 82.9711 164.673 81.8603 165.127C80.7494 165.581 79.5592 165.809 78.3592 165.798C77.1592 165.787 75.9735 165.537 74.8711 165.063C73.7687 164.589 72.7718 163.9 71.9385 163.036L69.4321 160.53C61.7683 152.878 55.3818 146.492 50.9956 140.744C46.3684 134.671 43.127 128.26 43.127 120.5C43.127 112.74 46.3804 106.329 50.9956 100.256C55.3818 94.5081 61.7683 88.1217 69.4321 80.4699L71.9385 77.9635Z" fill="#0352FC"/>
</g>
<defs>
<clipPath id="clip0_404_66">
<rect width="241" height="241" fill="white"/>
</clipPath>
</defs>
</svg>
